<svg width="1262" height="1755" viewBox="0 0 1262 1755" fill="none" xmlns="http://www.w3.org/2000/svg">
<path d="M1221.74 668.82C1196.41 584.019 1156.68 504.408 1095.1 440.966C1078.8 424.16 1061.33 408.482 1043.93 392.817C1030.29 380.538 996.493 360.652 989.444 344.138C1025.33 428.29 1061.29 515.585 1034.19 607.849C1021.95 649.585 975.615 749.533 915.268 724.058C858.185 699.951 864.832 580.74 859.918 532.564C847.848 414.377 821.643 296.428 758.391 194.128C723.94 138.401 678.807 88.8453 621.99 55.2451C547.374 11.1063 469.989 -18.5653 385.075 13.4275C403.765 6.39172 453.002 62.7726 462.193 73.6441C491.954 108.797 516.732 150.374 530.015 194.594C556.979 284.428 533.452 386.71 501.96 472.337C436.777 649.534 328.031 808.9 275.835 991.14C257.637 1054.65 245.141 1119.92 241.731 1185.97C230.994 1394 339.38 1584.57 511.059 1700.89C550.025 1727.29 619.283 1760.35 668.614 1743.33C524.512 1666.54 476.607 1603.45 454.347 1513.08C402.766 1303.54 599.527 1170.52 684.626 1004.77C707.273 960.663 723.726 912.195 717.984 862.16C715.839 843.508 694.537 751.779 666.269 756.292C751.941 742.606 807.731 799.435 837.04 873.579C867.92 951.675 886.279 1031.92 872.637 1114.99C868.068 1142.77 847.099 1229.58 887.478 1235.21C943.057 1242.98 990.761 1169.51 979.357 1098.62C973.495 1066.02 967.647 1015.18 967.647 1015.17C1026.7 1087.67 1053.48 1160.2 1062.14 1239.77C1077.64 1382.19 1016.76 1569.35 902.222 1685.58C950.367 1636.71 1011.66 1602.93 1058.14 1550.74C1105.62 1497.47 1141.84 1435.84 1170.17 1370.63C1233.58 1224.65 1270.6 1059.66 1260.29 900.284C1255.45 824.217 1244.33 744.473 1221.73 668.844L1221.74 668.82Z" fill="#6E46AE"/>
<path d="M28.1162 991.71C45.8013 932.281 73.5521 876.49 116.552 832.03C127.938 820.252 140.135 809.265 152.285 798.287C161.811 789.681 185.413 775.745 190.335 764.172C165.274 823.146 140.165 884.323 159.087 948.981C167.636 978.23 199.993 1048.27 242.135 1030.42C281.998 1013.53 277.356 929.983 280.788 896.221C289.217 813.396 307.516 730.737 351.688 659.045C375.746 619.992 407.264 585.263 446.942 561.716C499.048 530.783 553.089 509.989 612.388 532.41C599.335 527.479 564.951 566.991 558.533 574.61C537.75 599.245 520.447 628.382 511.17 659.372C492.341 722.327 508.77 794.007 530.763 854.014C576.282 978.194 652.224 1089.88 688.674 1217.59C701.382 1262.1 710.108 1307.84 712.489 1354.13C719.988 1499.92 644.298 1633.47 524.409 1714.99C497.197 1733.48 448.832 1756.66 414.382 1744.73C515.013 1690.91 548.467 1646.7 564.012 1583.37C600.033 1436.52 462.628 1343.3 403.2 1227.15C387.385 1196.23 375.896 1162.27 379.906 1127.2C381.403 1114.13 396.279 1049.85 416.02 1053.01C356.192 1043.42 317.232 1083.24 296.765 1135.2C275.2 1189.93 262.379 1246.17 271.906 1304.38C275.096 1323.85 289.74 1384.69 261.542 1388.63C222.729 1394.08 189.416 1342.59 197.38 1292.91C201.473 1270.06 205.557 1234.44 205.557 1234.43C164.318 1285.24 145.617 1336.07 139.571 1391.83C128.742 1491.64 171.258 1622.8 251.245 1704.25C217.625 1670.01 174.82 1646.33 142.362 1609.76C109.205 1572.43 83.9105 1529.24 64.1315 1483.54C19.8483 1381.24 -6.00378 1265.61 1.19574 1153.92C4.57283 1100.61 12.3408 1044.73 28.1195 991.727L28.1162 991.71Z" fill="#3D2462"/>
<path d="M28.1162 991.71C45.8013 932.281 73.5521 876.49 116.552 832.03C127.938 820.252 140.135 809.265 152.285 798.287C161.811 789.681 185.413 775.745 190.335 764.172C165.274 823.146 140.165 884.323 159.087 948.981C167.636 978.23 199.993 1048.27 242.135 1030.42C281.998 1013.53 277.356 929.983 280.788 896.221C289.217 813.396 307.516 730.737 351.688 659.045C375.746 619.992 407.264 585.263 446.942 561.716C499.048 530.783 553.089 509.989 612.388 532.41C599.335 527.479 564.951 566.991 558.533 574.61C537.75 599.245 520.447 628.382 511.17 659.372C492.341 722.327 508.77 794.007 530.763 854.014C576.282 978.194 652.224 1089.88 688.674 1217.59C701.382 1262.1 710.108 1307.84 712.489 1354.13C719.988 1499.92 644.298 1633.47 524.409 1714.99C497.197 1733.48 448.832 1756.66 414.382 1744.73C515.013 1690.91 548.467 1646.7 564.012 1583.37C600.033 1436.52 462.628 1343.3 403.2 1227.15C387.385 1196.23 375.896 1162.27 379.906 1127.2C381.403 1114.13 396.279 1049.85 416.02 1053.01C356.192 1043.42 317.232 1083.24 296.765 1135.2C275.2 1189.93 262.379 1246.17 271.906 1304.38C275.096 1323.85 289.74 1384.69 261.542 1388.63C222.729 1394.08 189.416 1342.59 197.38 1292.91C201.473 1270.06 205.557 1234.44 205.557 1234.43C164.318 1285.24 145.617 1336.07 139.571 1391.83C128.742 1491.64 171.258 1622.8 251.245 1704.25C217.625 1670.01 174.82 1646.33 142.362 1609.76C109.205 1572.43 83.9105 1529.24 64.1315 1483.54C19.8483 1381.24 -6.00378 1265.61 1.19574 1153.92C4.57283 1100.61 12.3408 1044.73 28.1195 991.727L28.1162 991.71Z" fill="#3D2462"/>
<path d="M1092.95 1104.9C1077.82 1053.81 1054.07 1005.86 1017.29 967.639C1007.54 957.515 997.109 948.071 986.714 938.634C978.564 931.237 958.372 919.258 954.16 909.31C975.601 960.003 997.083 1012.59 980.895 1068.17C973.581 1093.31 945.898 1153.52 909.844 1138.17C875.74 1123.65 879.711 1051.84 876.775 1022.82C869.564 951.622 853.907 880.569 816.117 818.944C795.534 785.373 768.569 755.521 734.624 735.28C690.044 708.69 643.811 690.816 593.078 710.089C604.245 705.85 633.662 739.814 639.153 746.363C656.934 767.54 671.737 792.586 679.673 819.224C695.782 873.34 681.727 934.955 662.911 986.537C623.968 1093.28 558.997 1189.28 527.812 1299.07C516.94 1337.32 509.474 1376.65 507.437 1416.43C501.022 1541.75 565.778 1656.55 668.347 1726.62C691.628 1742.52 733.007 1762.44 762.48 1752.19C676.386 1705.93 647.764 1667.93 634.465 1613.48C603.647 1487.26 721.203 1407.12 772.046 1307.28C785.576 1280.71 795.406 1251.51 791.976 1221.37C790.694 1210.13 777.967 1154.87 761.078 1157.59C812.263 1149.35 845.595 1183.58 863.106 1228.25C881.555 1275.29 892.524 1323.63 884.374 1373.67C881.644 1390.41 869.116 1442.7 893.24 1446.09C926.446 1450.78 954.947 1406.51 948.134 1363.81C944.632 1344.17 941.138 1313.55 941.138 1313.54C976.42 1357.21 992.419 1400.91 997.592 1448.84C1006.86 1534.63 970.482 1647.38 902.05 1717.4C930.813 1687.96 967.434 1667.61 995.204 1636.17C1023.57 1604.08 1045.21 1566.96 1062.13 1527.67C1100.02 1439.73 1122.14 1340.34 1115.98 1244.33C1113.09 1198.51 1106.44 1150.47 1092.94 1104.91L1092.95 1104.9Z" fill="#3D2462"/>
<path d="M1092.95 1104.9C1077.82 1053.81 1054.07 1005.86 1017.29 967.639C1007.54 957.515 997.109 948.071 986.714 938.634C978.564 931.237 958.372 919.258 954.16 909.31C975.601 960.003 997.083 1012.59 980.895 1068.17C973.581 1093.31 945.898 1153.52 909.844 1138.17C875.74 1123.65 879.711 1051.84 876.775 1022.82C869.564 951.622 853.907 880.569 816.117 818.944C795.534 785.373 768.569 755.521 734.624 735.28C690.044 708.69 643.811 690.816 593.078 710.089C604.245 705.85 633.662 739.814 639.153 746.363C656.934 767.54 671.737 792.586 679.673 819.224C695.782 873.34 681.727 934.955 662.911 986.537C623.968 1093.28 558.997 1189.28 527.812 1299.07C516.94 1337.32 509.474 1376.65 507.437 1416.43C501.022 1541.75 565.778 1656.55 668.347 1726.62C691.628 1742.52 733.007 1762.44 762.48 1752.19C676.386 1705.93 647.764 1667.93 634.465 1613.48C603.647 1487.26 721.203 1407.12 772.046 1307.28C785.576 1280.71 795.406 1251.51 791.976 1221.37C790.694 1210.13 777.967 1154.87 761.078 1157.59C812.263 1149.35 845.595 1183.58 863.106 1228.25C881.555 1275.29 892.524 1323.63 884.374 1373.67C881.644 1390.41 869.116 1442.7 893.24 1446.09C926.446 1450.78 954.947 1406.51 948.134 1363.81C944.632 1344.17 941.138 1313.55 941.138 1313.54C976.42 1357.21 992.419 1400.91 997.592 1448.84C1006.86 1534.63 970.482 1647.38 902.05 1717.4C930.813 1687.96 967.434 1667.61 995.204 1636.17C1023.57 1604.08 1045.21 1566.96 1062.13 1527.67C1100.02 1439.73 1122.14 1340.34 1115.98 1244.33C1113.09 1198.51 1106.44 1150.47 1092.94 1104.91L1092.95 1104.9Z" fill="#B051AA"/>
</svg>
