<svg width="400" height="200" viewBox="0 0 400 200" fill="none" xmlns="http://www.w3.org/2000/svg">
<path d="M213.516 65.8568C213.516 62.1381 211.839 59.2214 208.484 57.1068C207.901 56.7787 206.078 55.8855 203.016 54.4272C200.354 53.1511 198.695 51.8204 198.039 50.435C197.711 49.7423 197.547 48.9949 197.547 48.1928C197.547 45.6772 198.622 43.9089 200.773 42.8881C201.685 42.4506 202.651 42.2318 203.672 42.2318C206.151 42.2318 208.102 43.2344 209.523 45.2397C209.669 45.4949 209.815 45.7501 209.961 46.0053L213.461 44.1459C212.294 41.1563 209.997 39.2969 206.57 38.5678C205.695 38.3855 204.802 38.2943 203.891 38.2943C200.5 38.2943 197.729 39.3881 195.578 41.5756C193.792 43.435 192.898 45.6954 192.898 48.3568C192.898 52.0756 194.539 54.9558 197.82 56.9975C198.367 57.3256 200.154 58.2188 203.18 59.6772C205.878 60.9532 207.573 62.3204 208.266 63.7787C208.63 64.5443 208.813 65.3647 208.812 66.2397C208.812 68.9376 207.701 70.7787 205.477 71.7631C204.602 72.1641 203.635 72.3647 202.578 72.3647C199.698 72.3282 196.872 71.3985 194.102 69.5756L192.188 72.9662C195.396 75.2631 198.805 76.4115 202.414 76.4115C206.352 76.4115 209.359 75.099 211.438 72.474C212.823 70.6511 213.516 68.4454 213.516 65.8568Z" fill="#212121"/>
<path d="M231.792 38.8412V42.7787H240.378V75.81H244.972V42.7787H253.667V38.8412H231.792Z" fill="#212121"/>
<path d="M286.709 75.81V61.9193L298.084 38.8959L293.163 38.8959L287.475 51.0912C286.928 52.2214 285.944 54.5001 284.522 57.9272C283.72 55.7397 282.772 53.4428 281.678 51.0365L276.045 38.8959H271.069L282.116 61.8647V75.81H286.709Z" fill="#212121"/>
<path d="M336.486 75.81V71.9272H323.361V38.8959H318.767V75.81H336.486Z" fill="#212121"/>
<path d="M376.583 71.9272H362.473V58.5834H374.505V54.7006H362.473V42.7787H376.091V38.8959H357.825V75.81H376.583V71.9272Z" fill="#212121"/>
<path d="M211.312 98.8959H192.992V135.81H197.641V118.583H209.727V114.701H197.641V102.779H211.312V98.8959Z" fill="#212121"/>
<path d="M256.281 117.435C256.281 110.07 254.422 104.729 250.703 101.412C248.333 99.3334 245.398 98.2943 241.898 98.2943C236.758 98.2943 232.856 100.591 230.195 105.185C228.263 108.539 227.297 112.622 227.297 117.435C227.297 124.945 229.247 130.305 233.148 133.513C235.481 135.445 238.362 136.412 241.789 136.412C247.112 136.412 251.067 134.024 253.656 129.247C255.406 126.003 256.281 122.065 256.281 117.435ZM232.218 117.435C232.218 111.638 233.549 107.409 236.211 104.747C237.815 103.18 239.711 102.396 241.898 102.396C245.872 102.396 248.625 104.729 250.156 109.396C250.922 111.693 251.304 114.372 251.304 117.435C251.304 123.414 249.919 127.68 247.148 130.232C245.653 131.617 243.867 132.31 241.789 132.31C237.669 132.31 234.843 129.958 233.312 125.255C232.583 122.995 232.218 120.388 232.218 117.435Z" fill="#212121"/>
<path d="M279.32 135.81V120.443H283.859C284.369 120.443 284.752 120.425 285.007 120.388L291.132 132.966C292.408 135.117 293.994 136.247 295.89 136.357C296.692 136.357 297.385 136.284 297.968 136.138L297.749 132.747H297.257C296.309 132.675 295.598 132.164 295.124 131.216L289.328 119.622C293.119 118.346 295.453 115.813 296.328 112.021C296.546 111.073 296.656 110.07 296.656 109.013C296.583 102.195 292.299 98.7683 283.804 98.7318C280.523 98.7318 277.497 98.7865 274.726 98.8959V135.81H279.32ZM283.695 102.615C287.997 102.615 290.585 103.945 291.46 106.607C291.716 107.445 291.843 108.43 291.843 109.56C291.843 113.315 290.038 115.576 286.429 116.341C285.663 116.487 284.807 116.56 283.859 116.56H279.32V102.724C281.143 102.651 282.601 102.615 283.695 102.615Z" fill="#212121"/>
<path d="M339.108 133.349V117.599H326.804V121.537H334.515V130.779C332.036 131.836 329.848 132.365 327.952 132.365C323.541 132.365 320.478 130.177 318.765 125.802C317.853 123.469 317.397 120.68 317.397 117.435C317.397 111.018 318.965 106.57 322.101 104.091C323.595 102.925 325.291 102.341 327.187 102.341C330.614 102.414 333.129 104.365 334.733 108.193L339.108 106.935C337.577 102.524 334.77 99.7891 330.687 98.7318C329.593 98.4402 328.463 98.2943 327.296 98.2943C322.556 98.2943 318.819 100.227 316.085 104.091C313.679 107.518 312.476 111.966 312.476 117.435C312.476 125.237 314.663 130.724 319.038 133.896C321.371 135.573 324.161 136.412 327.405 136.412C331.197 136.375 335.098 135.354 339.108 133.349Z" fill="#212121"/>
<path d="M376.858 131.927H362.749V118.583H374.78V114.701H362.749V102.779H376.366V98.8959H358.1V135.81H376.858V131.927Z" fill="#212121"/>
<path d="M36.9384 79.0019L55.9677 93.8691V76.462L67.3204 99.3238H76.2927L47.6007 41.3117V76.6206L21 55.8453L34.4565 99.3238H43.225L36.9384 79.0019Z" fill="#212121"/>
<path d="M127.563 93.4664L131.987 97.7062L139.612 91.8124L137.781 99.3235H143.506L148.808 77.5693L132.369 90.2755L125.685 83.8729L118.895 99.3238H124.988L127.563 93.4664Z" fill="#212121"/>
<path d="M100.03 65.1237L104.971 74.8717L172.326 44.0385C173.078 43.6941 173.65 43.0698 173.917 42.305C174.185 41.5394 174.126 40.6957 173.753 39.957L171.632 35.7643C171.257 35.0301 170.602 34.4624 169.809 34.1851C169.016 33.9077 168.15 33.9433 167.4 34.2838L100.03 65.1237Z" fill="#212121"/>
<path d="M90.3878 61.2659C89.0059 62.3897 87.4926 63.3435 85.8827 64.1067C84.3191 64.865 82.6719 65.4385 80.9758 65.8152C81.0872 68.0896 80.7663 70.3645 80.0312 72.5194L87.0671 87.1423C88.1839 87.0408 89.3031 87.3106 90.2502 87.9109C91.198 88.5114 91.9198 89.4079 92.3049 90.4615L102.422 85.588C101.499 84.1664 101.114 82.4606 101.336 80.7799C101.684 78.8328 103.061 77.2039 105.438 75.8916L99.5297 63.4945C97.3486 64.1856 93.2917 63.4666 90.3878 61.2659Z" fill="#212121"/>
<path d="M92.8493 99.0531L108.859 91.3174L105.826 85.0528L89.8007 92.7725L92.8493 99.0531Z" fill="#212121"/>
<path d="M91.9691 56.2915C90.991 54.0978 89.1667 52.3942 86.9116 51.5671C84.6573 50.7402 82.1632 50.861 79.9992 51.9029C77.8353 52.9441 76.1846 54.817 75.4237 57.095C74.6629 59.3732 74.8561 61.8624 75.9601 63.995C76.9147 65.9768 81.5465 65.055 85.4298 63.1928C89.3123 61.3305 92.9275 58.2649 91.9691 56.2915Z" fill="#212121"/>
<path fill-rule="evenodd" clip-rule="evenodd" d="M56.3428 135.832C59.9452 135.921 63.1508 135.996 63.6677 135.996H64.4072C69.6277 136.745 72.2057 139.763 72.2057 144.293C72.2057 146.293 71.3672 148.124 69.9854 149.549H132.735C127.549 146.483 124.127 141.325 124.127 135.471C124.127 126.076 132.911 118.437 143.718 118.437C145.477 118.437 146.908 117.164 146.908 115.58L146.907 107.182C146.908 106.279 146.091 105.549 145.085 105.549L145.086 105.55H46.9701L56.3428 135.832ZM44.8765 105.55H35.9071C35.9071 106.144 39.6167 117.907 42.3561 126.593C43.7328 130.958 44.8645 134.546 45.1571 135.549C45.1571 135.549 49.6602 135.666 54.233 135.78L44.8765 105.55Z" fill="#212121"/>
<path fill-rule="evenodd" clip-rule="evenodd" d="M24 163.81C24 162.153 25.3431 160.81 27 160.81H375C376.657 160.81 378 162.153 378 163.81C378 165.467 376.657 166.81 375 166.81H27C25.3431 166.81 24 165.467 24 163.81Z" fill="#212121"/>
<path d="M213.516 65.8568C213.516 62.1381 211.839 59.2214 208.484 57.1068C207.901 56.7787 206.078 55.8855 203.016 54.4272C200.354 53.1511 198.695 51.8204 198.039 50.435C197.711 49.7423 197.547 48.9949 197.547 48.1928C197.547 45.6772 198.622 43.9089 200.773 42.8881C201.685 42.4506 202.651 42.2318 203.672 42.2318C206.151 42.2318 208.102 43.2344 209.523 45.2397C209.669 45.4949 209.815 45.7501 209.961 46.0053L213.461 44.1459C212.294 41.1563 209.997 39.2969 206.57 38.5678C205.695 38.3855 204.802 38.2943 203.891 38.2943C200.5 38.2943 197.729 39.3881 195.578 41.5756C193.792 43.435 192.898 45.6954 192.898 48.3568C192.898 52.0756 194.539 54.9558 197.82 56.9975C198.367 57.3256 200.154 58.2188 203.18 59.6772C205.878 60.9532 207.573 62.3204 208.266 63.7787C208.63 64.5443 208.813 65.3647 208.812 66.2397C208.812 68.9376 207.701 70.7787 205.477 71.7631C204.602 72.1641 203.635 72.3647 202.578 72.3647C199.698 72.3282 196.872 71.3985 194.102 69.5756L192.188 72.9662C195.396 75.2631 198.805 76.4115 202.414 76.4115C206.352 76.4115 209.359 75.099 211.438 72.474C212.823 70.6511 213.516 68.4454 213.516 65.8568Z" fill="#6E46AE"/>
<path d="M231.792 38.8412V42.7787H240.378V75.81H244.972V42.7787H253.667V38.8412H231.792Z" fill="#6E46AE"/>
<path d="M286.709 75.81V61.9193L298.084 38.8959L293.163 38.8959L287.475 51.0912C286.928 52.2214 285.944 54.5001 284.522 57.9272C283.72 55.7397 282.772 53.4428 281.678 51.0365L276.045 38.8959H271.069L282.116 61.8647V75.81H286.709Z" fill="#6E46AE"/>
<path d="M336.486 75.81V71.9272H323.361V38.8959H318.767V75.81H336.486Z" fill="#6E46AE"/>
<path d="M376.583 71.9272H362.473V58.5834H374.505V54.7006H362.473V42.7787H376.091V38.8959H357.825V75.81H376.583V71.9272Z" fill="#6E46AE"/>
<path d="M211.312 98.8959H192.992V135.81H197.641V118.583H209.727V114.701H197.641V102.779H211.312V98.8959Z" fill="#00B6B4"/>
<path d="M256.281 117.435C256.281 110.07 254.422 104.729 250.703 101.412C248.333 99.3334 245.398 98.2943 241.898 98.2943C236.758 98.2943 232.856 100.591 230.195 105.185C228.263 108.539 227.297 112.622 227.297 117.435C227.297 124.945 229.247 130.305 233.148 133.513C235.481 135.445 238.362 136.412 241.789 136.412C247.112 136.412 251.067 134.024 253.656 129.247C255.406 126.003 256.281 122.065 256.281 117.435ZM232.218 117.435C232.218 111.638 233.549 107.409 236.211 104.747C237.815 103.18 239.711 102.396 241.898 102.396C245.872 102.396 248.625 104.729 250.156 109.396C250.922 111.693 251.304 114.372 251.304 117.435C251.304 123.414 249.919 127.68 247.148 130.232C245.653 131.617 243.867 132.31 241.789 132.31C237.669 132.31 234.843 129.958 233.312 125.255C232.583 122.995 232.218 120.388 232.218 117.435Z" fill="#00B6B4"/>
<path d="M279.32 135.81V120.443H283.859C284.369 120.443 284.752 120.425 285.007 120.388L291.132 132.966C292.408 135.117 293.994 136.247 295.89 136.357C296.692 136.357 297.385 136.284 297.968 136.138L297.749 132.747H297.257C296.309 132.675 295.598 132.164 295.124 131.216L289.328 119.622C293.119 118.346 295.453 115.813 296.328 112.021C296.546 111.073 296.656 110.07 296.656 109.013C296.583 102.195 292.299 98.7683 283.804 98.7318C280.523 98.7318 277.497 98.7865 274.726 98.8959V135.81H279.32ZM283.695 102.615C287.997 102.615 290.585 103.945 291.46 106.607C291.716 107.445 291.843 108.43 291.843 109.56C291.843 113.315 290.038 115.576 286.429 116.341C285.663 116.487 284.807 116.56 283.859 116.56H279.32V102.724C281.143 102.651 282.601 102.615 283.695 102.615Z" fill="#00B6B4"/>
<path d="M339.108 133.349V117.599H326.804V121.537H334.515V130.779C332.036 131.836 329.848 132.365 327.952 132.365C323.541 132.365 320.478 130.177 318.765 125.802C317.853 123.469 317.397 120.68 317.397 117.435C317.397 111.018 318.965 106.57 322.101 104.091C323.595 102.925 325.291 102.341 327.187 102.341C330.614 102.414 333.129 104.365 334.733 108.193L339.108 106.935C337.577 102.524 334.77 99.7891 330.687 98.7318C329.593 98.4402 328.463 98.2943 327.296 98.2943C322.556 98.2943 318.819 100.227 316.085 104.091C313.679 107.518 312.476 111.966 312.476 117.435C312.476 125.237 314.663 130.724 319.038 133.896C321.371 135.573 324.161 136.412 327.405 136.412C331.197 136.375 335.098 135.354 339.108 133.349Z" fill="#00B6B4"/>
<path d="M376.858 131.927H362.749V118.583H374.78V114.701H362.749V102.779H376.366V98.8959H358.1V135.81H376.858V131.927Z" fill="#00B6B4"/>
<path d="M36.9384 79.0019L55.9677 93.8691V76.462L67.3204 99.3238H76.2927L47.6007 41.3117V76.6206L21 55.8453L34.4565 99.3238H43.225L36.9384 79.0019Z" fill="#00B6B4"/>
<path d="M127.563 93.4664L131.987 97.7062L139.612 91.8124L137.781 99.3235H143.506L148.808 77.5693L132.369 90.2755L125.685 83.8729L118.895 99.3238H124.988L127.563 93.4664Z" fill="#00B6B4"/>
<path d="M100.03 65.1237L104.971 74.8717L172.326 44.0385C173.078 43.6941 173.65 43.0698 173.917 42.305C174.185 41.5394 174.126 40.6957 173.753 39.957L171.632 35.7643C171.257 35.0301 170.602 34.4624 169.809 34.1851C169.016 33.9077 168.15 33.9433 167.4 34.2838L100.03 65.1237Z" fill="#6E46AE"/>
<path d="M90.3878 61.2659C89.0059 62.3897 87.4926 63.3435 85.8827 64.1067C84.3191 64.865 82.6719 65.4385 80.9758 65.8152C81.0872 68.0896 80.7663 70.3645 80.0312 72.5194L87.0671 87.1423C88.1839 87.0408 89.3031 87.3106 90.2502 87.9109C91.198 88.5114 91.9198 89.4079 92.3049 90.4615L102.422 85.588C101.499 84.1664 101.114 82.4606 101.336 80.7799C101.684 78.8328 103.061 77.2039 105.438 75.8916L99.5297 63.4945C97.3486 64.1856 93.2917 63.4666 90.3878 61.2659Z" fill="#3D2462"/>
<path d="M92.8493 99.0531L108.859 91.3174L105.826 85.0528L89.8007 92.7725L92.8493 99.0531Z" fill="#6E46AE"/>
<path d="M91.9691 56.2915C90.991 54.0978 89.1667 52.3942 86.9116 51.5671C84.6573 50.7402 82.1632 50.861 79.9992 51.9029C77.8353 52.9441 76.1846 54.817 75.4237 57.095C74.6629 59.3732 74.8561 61.8624 75.9601 63.995C76.9147 65.9768 81.5465 65.055 85.4298 63.1928C89.3123 61.3305 92.9275 58.2649 91.9691 56.2915Z" fill="#6E46AE"/>
<path fill-rule="evenodd" clip-rule="evenodd" d="M56.3428 135.832C59.9452 135.921 63.1508 135.996 63.6677 135.996H64.4072C69.6277 136.745 72.2057 139.763 72.2057 144.293C72.2057 146.293 71.3672 148.124 69.9854 149.549H132.735C127.549 146.483 124.127 141.325 124.127 135.471C124.127 126.076 132.911 118.437 143.718 118.437C145.477 118.437 146.908 117.164 146.908 115.58L146.907 107.182C146.908 106.279 146.091 105.549 145.085 105.549L145.086 105.55H46.9701L56.3428 135.832ZM44.8765 105.55H35.9071C35.9071 106.144 39.6167 117.907 42.3561 126.593C43.7328 130.958 44.8645 134.546 45.1571 135.549C45.1571 135.549 49.6602 135.666 54.233 135.78L44.8765 105.55Z" fill="#6E46AE"/>
<path fill-rule="evenodd" clip-rule="evenodd" d="M24 163.81C24 162.153 25.3431 160.81 27 160.81H375C376.657 160.81 378 162.153 378 163.81C378 165.467 376.657 166.81 375 166.81H27C25.3431 166.81 24 165.467 24 163.81Z" fill="#00B6B4"/>
</svg>
