<svg width="400" height="200" viewBox="0 0 400 200" fill="none" xmlns="http://www.w3.org/2000/svg">
<path d="M204.516 78.8568C204.516 75.1381 202.839 72.2214 199.484 70.1068C198.901 69.7787 197.078 68.8855 194.016 67.4272C191.354 66.1511 189.695 64.8204 189.039 63.435C188.711 62.7423 188.547 61.9949 188.547 61.1928C188.547 58.6772 189.622 56.9089 191.773 55.8881C192.685 55.4506 193.651 55.2318 194.672 55.2318C197.151 55.2318 199.102 56.2344 200.523 58.2397C200.669 58.4949 200.815 58.7501 200.961 59.0053L204.461 57.1459C203.294 54.1563 200.997 52.2969 197.57 51.5678C196.695 51.3855 195.802 51.2943 194.891 51.2943C191.5 51.2943 188.729 52.3881 186.578 54.5756C184.792 56.435 183.898 58.6954 183.898 61.3568C183.898 65.0756 185.539 67.9558 188.82 69.9975C189.367 70.3256 191.154 71.2188 194.18 72.6772C196.878 73.9532 198.573 75.3204 199.266 76.7787C199.63 77.5443 199.813 78.3647 199.812 79.2397C199.812 81.9376 198.701 83.7787 196.477 84.7631C195.602 85.1641 194.635 85.3647 193.578 85.3647C190.698 85.3282 187.872 84.3985 185.102 82.5756L183.188 85.9662C186.396 88.2631 189.805 89.4115 193.414 89.4115C197.352 89.4115 200.359 88.099 202.438 85.474C203.823 83.6511 204.516 81.4454 204.516 78.8568Z" fill="#6E46AE"/>
<path d="M222.792 51.8412V55.7787H231.378V88.81H235.972V55.7787H244.667V51.8412H222.792Z" fill="#6E46AE"/>
<path d="M277.709 88.81V74.9193L289.084 51.8959H284.163L278.475 64.0912C277.928 65.2214 276.944 67.5001 275.522 70.9272C274.72 68.7397 273.772 66.4428 272.678 64.0365L267.045 51.8959H262.069L273.116 74.8647V88.81H277.709Z" fill="#6E46AE"/>
<path d="M327.486 88.81V84.9272H314.361V51.8959H309.767V88.81H327.486Z" fill="#6E46AE"/>
<path d="M367.583 84.9272H353.473V71.5834H365.505V67.7006H353.473V55.7787H367.091V51.8959H348.825V88.81H367.583V84.9272Z" fill="#6E46AE"/>
<path d="M202.312 111.896H183.992V148.81H188.641V131.583H200.727V127.701H188.641V115.779H202.312V111.896Z" fill="#00B6B4"/>
<path d="M247.281 130.435C247.281 123.07 245.422 117.729 241.703 114.412C239.333 112.333 236.398 111.294 232.898 111.294C227.758 111.294 223.856 113.591 221.195 118.185C219.263 121.539 218.297 125.622 218.297 130.435C218.297 137.945 220.247 143.305 224.148 146.513C226.481 148.445 229.362 149.412 232.789 149.412C238.112 149.412 242.067 147.024 244.656 142.247C246.406 139.003 247.281 135.065 247.281 130.435ZM223.218 130.435C223.218 124.638 224.549 120.409 227.211 117.747C228.815 116.18 230.711 115.396 232.898 115.396C236.872 115.396 239.625 117.729 241.156 122.396C241.922 124.693 242.304 127.372 242.304 130.435C242.304 136.414 240.919 140.68 238.148 143.232C236.653 144.617 234.867 145.31 232.789 145.31C228.669 145.31 225.843 142.958 224.312 138.255C223.583 135.995 223.218 133.388 223.218 130.435Z" fill="#00B6B4"/>
<path d="M270.32 148.81V133.443H274.859C275.369 133.443 275.752 133.425 276.007 133.388L282.132 145.966C283.408 148.117 284.994 149.247 286.89 149.357C287.692 149.357 288.385 149.284 288.968 149.138L288.749 145.747H288.257C287.309 145.675 286.598 145.164 286.124 144.216L280.328 132.622C284.119 131.346 286.453 128.813 287.328 125.021C287.546 124.073 287.656 123.07 287.656 122.013C287.583 115.195 283.299 111.768 274.804 111.732C271.523 111.732 268.497 111.787 265.726 111.896V148.81H270.32ZM274.695 115.615C278.997 115.615 281.585 116.945 282.46 119.607C282.716 120.445 282.843 121.43 282.843 122.56C282.843 126.315 281.038 128.576 277.429 129.341C276.663 129.487 275.807 129.56 274.859 129.56H270.32V115.724C272.143 115.651 273.601 115.615 274.695 115.615Z" fill="#00B6B4"/>
<path d="M330.108 146.349V130.599H317.804V134.537H325.515V143.779C323.036 144.836 320.848 145.365 318.952 145.365C314.541 145.365 311.478 143.177 309.765 138.802C308.853 136.469 308.397 133.68 308.397 130.435C308.397 124.018 309.965 119.57 313.101 117.091C314.595 115.925 316.291 115.341 318.187 115.341C321.614 115.414 324.129 117.365 325.733 121.193L330.108 119.935C328.577 115.524 325.77 112.789 321.687 111.732C320.593 111.44 319.463 111.294 318.296 111.294C313.556 111.294 309.819 113.227 307.085 117.091C304.679 120.518 303.476 124.966 303.476 130.435C303.476 138.237 305.663 143.724 310.038 146.896C312.371 148.573 315.161 149.412 318.405 149.412C322.197 149.375 326.098 148.354 330.108 146.349Z" fill="#00B6B4"/>
<path d="M367.858 144.927H353.749V131.583H365.78V127.701H353.749V115.779H367.366V111.896H349.1V148.81H367.858V144.927Z" fill="#00B6B4"/>
<path d="M37.9384 79.0019L56.9677 93.8691V76.462L68.3204 99.3238H77.2927L48.6007 41.3117V76.6206L22 55.8453L35.4565 99.3238H44.225L37.9384 79.0019Z" fill="#00B6B4"/>
<path d="M128.563 93.4664L132.987 97.7062L140.612 91.8124L138.781 99.3235H144.506L149.808 77.5693L133.369 90.2755L126.685 83.8729L119.895 99.3238H125.988L128.563 93.4664Z" fill="#00B6B4"/>
<path d="M101.03 65.1237L105.971 74.8717L173.326 44.0385C174.078 43.6941 174.65 43.0698 174.917 42.305C175.185 41.5394 175.126 40.6957 174.753 39.957L172.632 35.7643C172.257 35.0301 171.602 34.4624 170.809 34.1851C170.016 33.9077 169.15 33.9433 168.4 34.2838L101.03 65.1237Z" fill="#6E46AE"/>
<path d="M91.3878 61.2659C90.0059 62.3897 88.4926 63.3435 86.8827 64.1067C85.3191 64.865 83.6719 65.4385 81.9758 65.8152C82.0872 68.0896 81.7663 70.3645 81.0312 72.5194L88.0671 87.1423C89.1839 87.0408 90.3031 87.3106 91.2502 87.9109C92.198 88.5114 92.9198 89.4079 93.3049 90.4615L103.422 85.588C102.499 84.1664 102.114 82.4606 102.336 80.7799C102.684 78.8328 104.061 77.2039 106.438 75.8916L100.53 63.4945C98.3486 64.1856 94.2917 63.4666 91.3878 61.2659Z" fill="#3D2462"/>
<path d="M93.8493 99.0531L109.859 91.3174L106.826 85.0528L90.8007 92.7725L93.8493 99.0531Z" fill="#6E46AE"/>
<path d="M92.9691 56.2915C91.991 54.0978 90.1667 52.3942 87.9116 51.5671C85.6573 50.7402 83.1632 50.861 80.9992 51.9029C78.8353 52.9441 77.1846 54.817 76.4237 57.095C75.6629 59.3732 75.8561 61.8624 76.9601 63.995C77.9147 65.9768 82.5465 65.055 86.4298 63.1928C90.3123 61.3305 93.9275 58.2649 92.9691 56.2915Z" fill="#6E46AE"/>
<path fill-rule="evenodd" clip-rule="evenodd" d="M57.3428 135.832C60.9452 135.921 64.1508 135.996 64.6677 135.996H65.4072C70.6277 136.745 73.2057 139.763 73.2057 144.293C73.2057 146.293 72.3672 148.124 70.9854 149.549H133.735C128.549 146.483 125.127 141.325 125.127 135.471C125.127 126.076 133.911 118.437 144.718 118.437C146.477 118.437 147.908 117.164 147.908 115.58L147.907 107.182C147.908 106.279 147.091 105.549 146.085 105.549L146.086 105.55H47.9701L57.3428 135.832ZM45.8765 105.55H36.9071C36.9071 106.144 40.6167 117.907 43.3561 126.593C44.7328 130.958 45.8645 134.546 46.1571 135.549C46.1571 135.549 50.6602 135.666 55.233 135.78L45.8765 105.55Z" fill="#6E46AE"/>
<path fill-rule="evenodd" clip-rule="evenodd" d="M25 163.81C25 162.153 26.3431 160.81 28 160.81H376C377.657 160.81 379 162.153 379 163.81C379 165.467 377.657 166.81 376 166.81H28C26.3431 166.81 25 165.467 25 163.81Z" fill="#00B6B4"/>
</svg>
