<svg width="600" height="600" viewBox="0 0 600 600" fill="none" xmlns="http://www.w3.org/2000/svg">
<path d="M82.2434 254.626L150.588 308.022V245.504L191.361 327.613H223.586L120.538 119.26V246.073L25 171.458L73.3294 327.613H104.822L82.2434 254.626Z" fill="#00B6B4"/>
<path d="M407.726 306.576L423.613 321.803L450.999 300.635L444.423 327.612H464.984L484.027 249.481L424.988 295.116L400.981 272.12L376.595 327.613H398.478L407.726 306.576Z" fill="#00B6B4"/>
<path d="M308.838 204.782L326.586 239.792L568.495 129.054C571.196 127.817 573.247 125.574 574.208 122.828C575.17 120.078 574.96 117.048 573.62 114.395L566.001 99.3367C564.656 96.6998 562.301 94.6608 559.453 93.6647C556.606 92.6686 553.497 92.7963 550.801 94.0193L308.838 204.782Z" fill="#6E46AE"/>
<path d="M274.209 190.926C269.246 194.963 263.811 198.388 258.029 201.13C252.413 203.853 246.497 205.912 240.405 207.266C240.805 215.434 239.653 223.605 237.013 231.344L262.283 283.863C266.294 283.498 270.313 284.467 273.715 286.623C277.119 288.78 279.711 292 281.094 295.784L317.432 278.28C314.115 273.175 312.733 267.048 313.53 261.012C314.778 254.019 319.726 248.169 328.262 243.455L307.042 198.931C299.209 201.413 284.639 198.83 274.209 190.926Z" fill="#3D2462"/>
<path d="M283.05 326.641L340.549 298.858L329.656 276.358L272.1 304.084L283.05 326.641Z" fill="#6E46AE"/>
<path d="M279.888 173.061C276.375 165.182 269.823 159.063 261.724 156.093C253.628 153.123 244.67 153.557 236.898 157.299C229.126 161.038 223.198 167.765 220.465 175.947C217.732 184.129 218.426 193.069 222.391 200.728C225.82 207.846 242.455 204.535 256.402 197.847C270.346 191.158 283.331 180.148 279.888 173.061Z" fill="#6E46AE"/>
<path fill-rule="evenodd" clip-rule="evenodd" d="M151.935 458.734C164.873 459.052 176.386 459.322 178.243 459.322H180.899C199.648 462.014 208.907 472.851 208.907 489.12C208.907 496.305 205.896 502.882 200.933 508H426.301C407.675 496.988 395.385 478.46 395.385 457.437C395.385 423.696 426.934 396.259 465.748 396.259C472.062 396.259 477.203 391.687 477.203 385.999L477.199 355.835C477.202 352.594 474.271 349.971 470.656 349.971L470.659 349.974H118.273L151.935 458.734ZM110.753 349.974H78.5393C78.5393 352.109 91.8626 394.354 101.701 425.55C106.646 441.227 110.71 454.114 111.761 457.718C111.761 457.718 127.934 458.137 144.358 458.546L110.753 349.974Z" fill="#6E46AE"/>
</svg>
